# xmcd
#
# Track frame offsets:
#	150
#	12680
#	24198
#	36524
#	48282
#	58273
#	68057
#	82189
#	92464
#	106009
#	118685
#	131898
#	145186
#	161066
#	173895
#	187488
#	196558
#	207738
#	220074
#	231209
#
# Disc length: 3281
#
# Revision: 4
# Processed by: cddbd v1.5.1PL0 Copyright (c) Steve Scherf et al.
# Submitted via: EasyCDDAExtractor 7.1.0.1
# Normalized: r3:DSETVAR1
#
DISCID=290ccf14
DTITLE=Various Artist - Country Music Classics [CD1]
DYEAR=1900
DGENRE=Country
TTITLE0=Charlie Rich - Behind Closed Doors
TTITLE1=Patsy Cline - Walking After Midnight
TTITLE2=Johnny Cash - I Walk The Line
TTITLE3=Tammy Wynette - Stand By Your Man
TTITLE4=Brenda Lee - I'm Sorry
TTITLE5=Ned Miller - From A Jack To A King
TTITLE6=Glen Campbell - Rhinestone Cowboy
TTITLE7=Leroy Van Dyke - Walk On By
TTITLE8=Patti Page - Tenessee Waltz
TTITLE9=Charley Pride - Crystal Chandeliers
TTITLE10=Kenny Rogers and The First Edition - Ruby, Don't Take Your Love To Town
TTITLE11=Lynn Anderson - Rose Garden
TTITLE12=Tom T Hall - Old Dogs, Children And Watermelon Wine
TTITLE13=Lee Hazlewood - These Boots Were Made For Walking
TTITLE14=Jimmy Dean - Big Bad John
TTITLE15=Frankie Laine - Rawhide
TTITLE16=Stonewall Jackson - Waterloo
TTITLE17=Freddy Fender - Wasted Days And Wasted Nights
TTITLE18=Don Gibson - Oh Lonesome Me
TTITLE19=Jeannie C Riley - Harper Valley Pta
EXTD=
EXTT0=
EXTT1=
EXTT2=
EXTT3=
EXTT4=
EXTT5=
EXTT6=
EXTT7=
EXTT8=
EXTT9=
EXTT10=
EXTT11=
EXTT12=
EXTT13=
EXTT14=
EXTT15=
EXTT16=
EXTT17=
EXTT18=
EXTT19=
PLAYORDER=
